<?xml version="1.0" encoding="UTF-8" standalone="no"?>
<!DOCTYPE svg PUBLIC "-//W3C//DTD SVG 1.1//EN" "http://www.w3.org/Graphics/SVG/1.1/DTD/svg11.dtd">
<svg width="1001" height="735" viewBox="0 0 1001 737" version="1.1" xmlns="http://www.w3.org/2000/svg" xmlns:xlink="http://www.w3.org/1999/xlink" xml:space="preserve" xmlns:serif="http://www.serif.com/" style="fill-rule:evenodd;clip-rule:evenodd;">
	<style type="text/css">
	.style1 {
		fill:none;
		stroke:#4e5b6b;
		stroke-opacity:0.75;
		stroke-width:0.9px;
	}
	.style2 {
		 fill:#4e5b6b;
		 fill-opacity:0.6;
		 stroke:#4e5b6b;
		 stroke-width:2px;
	}
	text {
		font-family:'HelveticaNeue-Bold', 'Helvetica Neue';
		font-weight:700;
		font-size:16px;
		fill:#bdbcbc;
	}
	</style>
	<g>
		<g>
			<path d="M231.97,484.274l0,-88.65l-76.951,-44.324l-76.949,44.324l0,88.65l76.949,44.326l76.951,-44.326Z" class="style1"/>
			<path d="M385.87,484.274l0,-88.65l-76.951,-44.324l-76.949,44.324l0,88.65l76.949,44.326l76.951,-44.326Z" class="style1"/>
			<path d="M539.77,484.274l0,-88.65l-77.951,-44.324l-75.949,44.324l0,88.65l75.949,44.326l77.951,-44.326Z" class="style1"/>
			<path d="M693.67,484.274l0,-88.65l-76.951,-44.324l-76.949,44.324l0,88.65l76.949,44.326l76.951,-44.326Z" class="style1"/>
			<path d="M847.57,484.274l0,-88.65l-77.951,-44.324l-75.949,44.324l0,88.65l75.949,44.326l77.951,-44.326Z" class="style1"/>
			<path d="M1001.47,484.274l0,-88.65l-76.951,-44.324l-76.949,44.324l0,88.65l76.949,44.326l76.951,-44.326Z" class="style1"/>
		</g>
		<g>
			<path d="M231.97,692.174l0,-88.65l-76.951,-44.324l-76.949,44.324l0,88.65l77.949,44.326l75.951,-44.326Z" class="style1"/>
			<path d="M385.87,692.174l0,-88.65l-76.951,-44.324l-76.949,44.324l0,88.65l76.949,44.326l76.951,-44.326Z" class="style1"/>
			<path d="M539.77,692.174l0,-88.65l-77.951,-44.324l-75.949,44.324l0,88.65l75.949,44.326l77.951,-44.326Z" class="style1"/>
			<path d="M693.67,692.174l0,-88.65l-77.951,-44.324l-75.949,44.324l0,88.65l75.949,44.326l77.951,-44.326Z" class="style1"/>
			<path d="M847.57,692.174l0,-88.65l-77.951,-44.324l-75.949,44.324l0,88.65l75.949,44.326l77.951,-44.326Z" class="style1"/>
			<path d="M1001.47,692.174l0,-88.65l-76.951,-44.324l-76.949,44.324l0,88.65l76.949,44.326l76.951,-44.326Z" class="style1"/>
		</g>
		<path d="M308.47,587.774l0,-88.65l-76.951,-44.324l-76.949,44.324l0,88.65l76.949,44.326l76.951,-44.326Z" class="style1"/>
		<path d="M615.37,587.774l0,-88.65l-76.951,-44.324l-76.949,44.324l0,88.65l76.949,44.326l76.951,-44.326Z" class="style1"/>
		<path d="M769.27,587.774l0,-88.65l-76.951,-44.324l-76.949,44.324l0,88.65l76.949,44.326l76.951,-44.326Z" class="style1"/>
		<path d="M923.17,587.774l0,-88.65l-76.951,-44.324l-76.949,44.324l0,88.65l76.949,44.326l76.951,-44.326Z" class="style1"/>
		<path d="M154.47,587.774l0,-88.65l-76.951,-44.324l-76.949,44.324l0,88.65l76.949,44.326l76.951,-44.326Z" class="style1"/>
		<g>
			<path d="M461.47,587.907l0.09,-383.407l-76.951,-44.324l-76.949,44.324l-0.09,383.407l76.949,44.326l76.951,-44.326Z" style="fill:#4e5b6b;fill-opacity:0.6;stroke:#4e5b6b;stroke-width:1.8px;"/>
			<path d="M307.57,205.176l75.6,45.9l78.3,-45.9" style="fill:none;stroke:#4e5b6b;stroke-width:1.8px;"/>
			<circle cx="384.87" cy="206.476" r="6.3" style="fill:#4e5b6b;"/>
		</g>
		<g>
			<path d="M385.05,691.498l0.09,-326.121l-76.951,-44.324l-76.949,44.324l-0.09,326.121l76.949,44.326l76.951,-44.326Z" class="style2"/>
			<path d="M231.15,365.9l75.6,45.9l78.3,-45.9" style="fill:none;stroke:#4e5b6b;stroke-width:2px;"/>
			<circle cx="308.45" cy="367.2" r="6.3" style="fill:#4e5b6b;"/>
		</g>
		<g>
			<path d="M231.35,484.598l0.09,-253.274l-76.951,-44.324l-76.949,44.324l-0.09,253.274l76.949,44.326l76.951,-44.326Z" class="style2"/>
			<path d="M77.45,231l75.6,45.9l78.3,-45.9" style="fill:none;stroke:#4e5b6b;stroke-width:2px;"/>
			<circle cx="154.75" cy="232.3" r="6.3" style="fill:#4e5b6b;"/>
		</g>
		<g>
			<path d="M693.55,483.598l0.09,-47.274l-77.951,-44.324l-75.949,44.324l-0.09,47.274l76.949,44.326l76.951,-44.326Z" style="fill:#e30613;fill-opacity:0.6;stroke:#e30613;stroke-width:2px;"/>
			<path d="M539.65,436l74.6,45.9l79.3,-45.9" style="fill:none;stroke:#e30613;stroke-width:2px;"/>
			<circle cx="616.95" cy="437.3" r="6.3" style="fill:#e30613;"/>
		</g>
		<g>
			<g>
				<text x="169.653px" y="127px">Google Cloud</text>
			</g>
			<g>
				<text x="169.653px" y="154px" style="font-family:'HelveticaNeue-Bold', 'Helvetica Neue';font-weight:700;font-size:22px;fill:#bdbcbc;">$0.036</text>
			</g>
			<path d="M154.5,227.5l-0.347,-113" style="fill:none;stroke:#4e5b6b;stroke-width:1px;stroke-linecap:square;"/>
		</g>
		<g>
			<g>
				<text x="631.653px" y="226px" style="font-family:'HelveticaNeue-Bold', 'Helvetica Neue';font-weight:700;font-size:16px;fill:#ed3524;">Akash</text>
			</g>
			<g>
				<text x="631.653px" y="267px" style="font-family:'HelveticaNeue-Bold', 'Helvetica Neue';font-weight:700;font-size:38px;fill:#ed3524;">$0.0045</text>
			</g>
			<path d="M616.5,435.5l-0.347,-222" style="fill:none;stroke:#e30613;stroke-width:1px;stroke-linecap:square;"/>
		</g>
		<g>
			<g>
				<text x="322.653px" y="14px">Amazon Web Service</text>
			</g>
			<g>
				<text x="322.653px" y="40px" style="font-family:'HelveticaNeue-Bold', 'Helvetica Neue';font-weight:700;font-size:22px;fill:#bdbcbc;">$0.045</text>
			</g>
			<path d="M307.5,373.5l-0.347,-372" style="fill:none;stroke:#4e5b6b;stroke-width:1px;stroke-linecap:square;"/>
		</g>
		<g>
			<g>
				<text x="399.653px" y="105px">Microsoft Azure</text>
			</g>
			<g>
				<text x="399.653px" y="132px" style="font-family:'HelveticaNeue-Bold', 'Helvetica Neue';font-weight:700;font-size:22px;fill:#bdbcbc;">$0.054</text>
			</g>
			<path d="M384.5,205.5l-0.347,-113" style="fill:none;stroke:#4e5b6b;stroke-width:1px;stroke-linecap:square;"/>
		</g>
	</g>
</svg>
