<svg height="377" viewBox="0 0 1171 377" width="1171" xmlns="http://www.w3.org/2000/svg"><g fill="none" fill-rule="evenodd"><g transform="translate(1 2)"><path d="m2.11013216 173.453161c105.46255484 64.338976 127.66519784-90.9620008 193.16299584-104.273513 65.497797-13.3115123 43.295154 90.962001 134.325991 65.448269s94.361233 53.246049 138.76652 53.246049c44.405286 0 61.057268-112.0385619 95.471365-112.0385619s65.497798 112.0385619 153.198238 112.0385619c87.700441 0 98.801762-102.0549277 164.29956-102.0549277 65.497797 0 112.123348 75.4319027 162.079298 75.4319027 33.30396 0 75.11894-13.681276 125.44493-41.043829" stroke="#141414" stroke-width="3"/><g opacity=".7" stroke="#4e5b6b" stroke-linecap="square" stroke-width=".5"><path d="m1166.541555 77.527299h-1165.334447"/><path d="m1166.541555 125.222701h-1165.334447"/><path d="m1166.263955 172.918103h-1165.33444"/><path d="m1166.263955 220.613506h-1165.33444"/><path d="m1166.541555 29.831897h-1165.334447"/><path d="m227.484831 29.555233v189.889534"/><path d="m469.484831 29.555233v189.889534"/><path d="m711.484831 29.555233v189.889534"/><path d="m953.484831 29.555233v189.889534"/><path d="m106.929515 29.555233v189.889534"/><path d="m348.484831 29.555233v189.889534"/><path d="m590.484831 29.555233v189.889534"/><path d="m832.484831 29.555233v189.889534"/><path d="m1074.484831 29.555233v189.889534"/></g><circle cx="236.929515" cy="78" fill="#141414" r="7"/><circle cx="616.929515" cy="127" fill="#141414" r="7"/><path d="m2.11013216 196.737711c56.98678414-55.543035 105.83259884-83.314552 146.53744484-83.314552 61.057269 0 140.986784 96.64488 206.484582 83.314552 65.497797-13.330328 54.396475-143.3010295 95.471365-143.3010295s37.744494 112.1969295 82.14978 112.1969295 57.726872-146.633611 92.140969-146.633611 68.828194 146.633611 156.528634 146.633611c87.700441 0 103.242291-67.7625018 168.740089-67.7625018 65.497794 0 99.911894 67.7625018 149.867844 67.7625018 33.30396 0 55.5066-9.257172 66.60793-27.771517" stroke="#4e5b6b" stroke-width="2"/><path d="m1 165.453161c105.462555 64.338976 127.665198-90.9620008 193.162996-104.273513 65.497797-13.3115123 43.295154 90.962001 134.325991 65.448269s94.361233 53.246049 138.76652 53.246049c44.405286 0 61.057268-112.0385619 95.471365-112.0385619s65.497798 112.0385619 153.198238 112.0385619c87.700441 0 98.801762-102.0549277 164.29956-102.0549277 65.497797 0 112.123348 75.4319027 162.07929 75.4319027 33.30397 0 75.11895-13.681276 125.44494-41.043829" stroke="#e30613" stroke-width="2"/><g stroke="#4e5b6b" stroke-linecap="square" stroke-width="3"><path d="m1.180065 0 .4989 252"/><path d="m1166.22647 0 .40609 252"/></g></g><circle cx="238.797357" cy="77" fill="#e30613" r="7"/><g fill="#bdbcbc" transform="translate(258.929515 256)"><text font-family="HelveticaNeue-Bold, Helvetica Neue" font-size="16" font-weight="bold"><tspan x="0" y="16">Services</tspan></text><g font-family="HelveticaNeue, Helvetica Neue" font-size="13"><text><tspan x="0" y="41.117981">Web </tspan><tspan font-family="HelveticaNeue-Light, Helvetica Neue" font-weight="300" x="40.729" y="40">nodejs</tspan></text><text><tspan x="10" y="59.117981">db </tspan><tspan font-family="HelveticaNeue-Light, Helvetica Neue" font-weight="300" x="39.419" y="58">postgres</tspan></text><text><tspan x="11" y="77.117981">ml </tspan><tspan font-family="HelveticaNeue-Light, Helvetica Neue" font-weight="300" x="38.976" y="76">tensorflow</tspan></text></g></g><path d="m238.429515 76.5v256" stroke="#e30613" stroke-linecap="square"/><circle cx="618.929515" cy="126" fill="#e30613" r="7"/><path d="m618.561674 125.5-.132159 251" stroke="#e30613" stroke-linecap="square"/><g fill="#bdbcbc" transform="translate(634.929515 279)"><text font-family="HelveticaNeue-Bold, Helvetica Neue" font-size="16" font-weight="bold"><tspan x="4" y="16">Deploy</tspan></text><g><text font-family="HelveticaNeue-Bold, Helvetica Neue" font-size="13"><tspan x="4" y="42">new-york 5 AKT</tspan></text><text font-family="HelveticaNeue-Bold, Helvetica Neue" font-size="13"><tspan x="25" y="60">tokyo 8 AKT</tspan></text><text font-family="HelveticaNeue-Bold, Helvetica Neue" font-size="13"><tspan x="0" y="78">bangalore 10 AKT</tspan></text><text font-family="HelveticaNeue-Bold, Helvetica Neue" font-size="13"><tspan x="28" y="96">paris 7 AKT</tspan></text></g></g></g></svg>