<?xml version="1.0" encoding="UTF-8" standalone="no"?><!DOCTYPE svg PUBLIC "-//W3C//DTD SVG 1.1//EN" "http://www.w3.org/Graphics/SVG/1.1/DTD/svg11.dtd"><svg width="163" height="106" viewBox="0 0 163 106" version="1.1" xmlns="http://www.w3.org/2000/svg" xmlns:xlink="http://www.w3.org/1999/xlink"><g id="hybrid_cloud"><path d="M135.072,39.701c2.439,-2.777 5.79,-4.547 9.415,-5.059c0.291,-0.04 0.565,-0.073 0.83,-0.1c0.44,-0.037 0.881,-0.071 1.326,-0.071c8.468,0 15.357,6.847 15.357,15.261c0,8.417 -6.889,15.268 -15.357,15.268l-45.677,0c-7.15,0 -12.966,-5.781 -12.966,-12.886c0,-7.107 5.818,-12.888 12.966,-12.888l0.524,0.028c0.569,-0.025 1.052,-0.359 1.186,-0.9c2.382,-9.63 11.007,-16.354 20.974,-16.354c7.762,0 14.776,4.05 18.654,10.661l0.721,1.364" style="fill:none;fill-rule:nonzero;stroke:#f34d2f;stroke-opacity:0.6;stroke-width:2px;"/><clipPath id="_clip1"><path d="M73.706,55.583c2.834,-3.23 6.728,-5.287 10.941,-5.883c0.338,-0.047 0.657,-0.085 0.964,-0.116c0.512,-0.043 1.025,-0.083 1.542,-0.083c9.841,0 17.847,7.962 17.847,17.745c0,9.788 -8.006,17.754 -17.847,17.754l-53.084,0c-8.309,0 -15.069,-6.722 -15.069,-14.984c0,-8.264 6.762,-14.986 15.069,-14.986l0.608,0.033c0.661,-0.029 1.223,-0.418 1.379,-1.047c2.768,-11.197 12.792,-19.016 24.375,-19.016c9.021,0 17.172,4.709 21.679,12.397l0.838,1.585l-9.242,6.601Z"/></clipPath><g clip-path="url(#_clip1)"><rect x="14" y="30" width="96" height="60" style="fill:#fff;"/></g><path d="M73.706,55.583c2.834,-3.23 6.728,-5.287 10.941,-5.883c0.338,-0.047 0.657,-0.085 0.964,-0.116c0.512,-0.043 1.025,-0.083 1.542,-0.083c9.841,0 17.847,7.962 17.847,17.745c0,9.788 -8.006,17.754 -17.847,17.754l-53.084,0c-8.309,0 -15.069,-6.722 -15.069,-14.984c0,-8.264 6.762,-14.986 15.069,-14.986l0.608,0.033c0.661,-0.029 1.223,-0.418 1.379,-1.047c2.768,-11.197 12.792,-19.016 24.375,-19.016c9.021,0 17.172,4.709 21.679,12.397l0.838,1.585" style="fill:none;fill-rule:nonzero;stroke:#f34d2f;stroke-width:2px;"/><path d="M116.332,15.237c-6.778,-8.189 -17,-13.404 -28.434,-13.404c-16.92,0 -31.184,11.419 -35.566,27" style="fill:none;fill-rule:nonzero;stroke:#f34d2f;stroke-opacity:0.6;stroke-width:2px;stroke-dasharray:1,5;"/><clipPath id="_clip2"><path d="M42.5,106c23.472,0 42.5,-19.028 42.5,-42.5c0,-23.472 -19.028,-42.5 -42.5,-42.5c-23.472,0 -42.5,19.028 -42.5,42.5c0,23.472 19.028,42.5 42.5,42.5Z"/></clipPath><g clip-path="url(#_clip2)"><rect x="-5" y="16" width="95" height="95" style="fill:#f67e6d;fill-opacity:0.18;"/></g></g></svg>