<?xml version="1.0" encoding="UTF-8" standalone="no"?><!DOCTYPE svg PUBLIC "-//W3C//DTD SVG 1.1//EN" "http://www.w3.org/Graphics/SVG/1.1/DTD/svg11.dtd"><svg width="162" height="91" viewBox="0 0 162 91" version="1.1" xmlns="http://www.w3.org/2000/svg" xmlns:xlink="http://www.w3.org/1999/xlink"><g id="interoperable"><path d="M92.706,60.583c2.834,-3.23 6.728,-5.287 10.941,-5.883c0.338,-0.047 0.657,-0.085 0.964,-0.116c0.512,-0.043 1.025,-0.083 1.542,-0.083c9.841,0 17.847,7.962 17.847,17.745c0,9.788 -8.006,17.754 -17.847,17.754l-53.084,0c-8.309,0 -15.069,-6.722 -15.069,-14.984c0,-8.264 6.762,-14.986 15.069,-14.986l0.608,0.033c0.661,-0.029 1.223,-0.418 1.379,-1.047c2.768,-11.197 12.792,-19.016 24.375,-19.016c9.021,0 17.172,4.709 21.679,12.397l0.838,1.585" style="fill:none;fill-rule:nonzero;stroke:#f34d2f;stroke-width:2px;"/><circle cx="81" cy="16" r="5" style="fill:none;stroke:#f34d2f;stroke-width:2px;stroke-linecap:butt;stroke-linejoin:miter;"/><circle cx="123" cy="36" r="5" style="fill:none;stroke:#f34d2f;stroke-width:2px;stroke-linecap:butt;stroke-linejoin:miter;"/><circle cx="146" cy="71" r="5" style="fill:none;stroke:#f34d2f;stroke-width:2px;stroke-linecap:butt;stroke-linejoin:miter;"/><circle cx="40" cy="36" r="5" style="fill:none;stroke:#f34d2f;stroke-width:2px;stroke-linecap:butt;stroke-linejoin:miter;"/><circle cx="16" cy="71" r="5" style="fill:none;stroke:#f34d2f;stroke-width:2px;stroke-linecap:butt;stroke-linejoin:miter;"/><path d="M81,21.5l0,14" style="fill:none;fill-rule:nonzero;stroke:#f34d2f;stroke-opacity:0.6;stroke-width:1px;stroke-linecap:square;stroke-linejoin:miter;"/><path d="M119,39.75c0,0 -2.667,2.683 -8,8.049" style="fill:none;fill-rule:nonzero;stroke:#f34d2f;stroke-opacity:0.6;stroke-width:1px;stroke-linecap:square;stroke-linejoin:miter;"/><path d="M44,39.75l8.074,7.211" style="fill:none;fill-rule:nonzero;stroke:#f34d2f;stroke-opacity:0.6;stroke-width:1px;stroke-linecap:square;stroke-linejoin:miter;"/><path d="M129,71l10.473,0" style="fill:none;fill-rule:nonzero;stroke:#f34d2f;stroke-opacity:0.6;stroke-width:1px;stroke-linecap:square;stroke-linejoin:miter;"/><path d="M22.673,71l10.327,0" style="fill:none;fill-rule:nonzero;stroke:#f34d2f;stroke-opacity:0.6;stroke-width:1px;stroke-linecap:square;stroke-linejoin:miter;"/><clipPath id="_clip1"><path d="M105.5,85c23.472,0 42.5,-19.028 42.5,-42.5c0,-23.472 -19.028,-42.5 -42.5,-42.5c-23.472,0 -42.5,19.028 -42.5,42.5c0,23.472 19.028,42.5 42.5,42.5Z"/></clipPath><g clip-path="url(#_clip1)"><rect x="58" y="-5" width="95" height="95" style="fill:#f67e6d;fill-opacity:0.18;"/></g></g></svg>