<?xml version="1.0" encoding="UTF-8" standalone="no"?><!DOCTYPE svg PUBLIC "-//W3C//DTD SVG 1.1//EN" "http://www.w3.org/Graphics/SVG/1.1/DTD/svg11.dtd"><svg width="103" height="94" viewBox="0 0 103 94" version="1.1" xmlns="http://www.w3.org/2000/svg" xmlns:xlink="http://www.w3.org/1999/xlink"><g id="secure_private"><rect x="68" y="51" width="34" height="26" style="fill:none;stroke:#f34d2f;stroke-width:2px;"/><path d="M89,61.123c0,-2.278 -1.567,-4.123 -3.499,-4.123c-1.933,0 -3.501,1.845 -3.501,4.123c0,1.563 0.747,2.907 1.833,3.605l0,6.272l3.334,0l0,-6.272c1.087,-0.698 1.833,-2.042 1.833,-3.605Z" style="fill:none;fill-rule:nonzero;stroke:#f34d2f;stroke-opacity:0.6;stroke-width:2px;"/><path d="M100,51c0,0 0,-5.106 -0.001,-5.155c-0.082,-7.661 -6.319,-13.845 -14,-13.845c-7.693,0 -13.94,6.206 -13.999,13.886l0,5.114" style="fill:none;fill-rule:nonzero;stroke:#f34d2f;stroke-width:2px;"/><path d="M20,60c0,-8.838 6.88,-16 15.37,-16l26.63,0" style="fill:none;fill-rule:nonzero;stroke:#f34d2f;stroke-width:2px;"/><path d="M68,18.5c0,9.659 -7.841,17.5 -17.5,17.5c-9.659,0 -17.5,-7.841 -17.5,-17.5c0,-9.659 7.841,-17.5 17.5,-17.5c9.659,0 17.5,7.841 17.5,17.5Z" style="fill:none;stroke:#f34d2f;stroke-width:2px;"/><clipPath id="_clip1"><path d="M42.5,94c23.472,0 42.5,-19.028 42.5,-42.5c0,-23.472 -19.028,-42.5 -42.5,-42.5c-23.472,0 -42.5,19.028 -42.5,42.5c0,23.472 19.028,42.5 42.5,42.5Z"/></clipPath><g clip-path="url(#_clip1)"><rect x="-5" y="4" width="95" height="95" style="fill:#f67e6d;fill-opacity:0.18;"/></g></g></svg>