<?xml version="1.0" encoding="UTF-8" standalone="no"?><!DOCTYPE svg PUBLIC "-//W3C//DTD SVG 1.1//EN" "http://www.w3.org/Graphics/SVG/1.1/DTD/svg11.dtd"><svg width="127" height="104" viewBox="0 0 127 104" version="1.1" xmlns="http://www.w3.org/2000/svg" xmlns:xlink="http://www.w3.org/1999/xlink"><g id="serverless"><path d="M104.724,34.204l0,-7.236l-5.83,-0.638c-0.613,-3.377 -1.952,-6.5 -3.846,-9.21l3.682,-4.577l-5.134,-5.118l-4.622,3.696c-2.713,-1.843 -5.828,-3.133 -9.191,-3.719l-0.658,-5.953l-7.262,0l-0.665,6.023c-3.239,0.621 -6.238,1.899 -8.858,3.693l-4.685,-3.74l-5.135,5.118l3.749,4.661c-1.862,2.684 -3.174,5.768 -3.785,9.099l-6.034,0.665l0,7.236l6.044,0.667c0.616,3.307 1.921,6.369 3.766,9.035l-3.72,4.631l5.133,5.117l4.649,-3.712c2.623,1.802 5.63,3.086 8.873,3.709l0.668,6.072l7.262,0l0.66,-6.001c3.349,-0.586 6.452,-1.868 9.153,-3.696l4.658,3.723l5.134,-5.119l-3.701,-4.602c1.894,-2.699 3.235,-5.815 3.858,-9.184l5.837,-0.64Z" style="fill:none;fill-rule:nonzero;stroke:#f34d2f;stroke-width:2px;"/><path d="M89.087,30.587c0,7.428 -6.049,13.458 -13.5,13.458c-7.451,0 -13.5,-6.03 -13.5,-13.458c0,-7.427 6.049,-13.457 13.5,-13.457c7.451,0 13.5,6.03 13.5,13.457Z" style="fill:none;stroke:#f34d2f;stroke-opacity:0.5;stroke-width:2px;"/><path d="M64.095,78.537l0,-4.979l-4.011,-0.439c-0.422,-2.324 -1.343,-4.472 -2.647,-6.337l2.534,-3.149l-3.532,-3.521l-3.181,2.543c-1.866,-1.268 -4.009,-2.156 -6.324,-2.559l-0.452,-4.096l-4.997,0l-0.458,4.144c-2.228,0.427 -4.292,1.307 -6.094,2.541l-3.223,-2.573l-3.534,3.521l2.579,3.207c-1.28,1.847 -2.183,3.969 -2.604,6.261l-4.151,0.457l0,4.979l4.158,0.459c0.424,2.275 1.322,4.382 2.592,6.216l-2.56,3.187l3.531,3.52l3.199,-2.554c1.806,1.24 3.874,2.123 6.106,2.552l0.459,4.178l4.997,0l0.454,-4.129c2.304,-0.403 4.439,-1.285 6.297,-2.543l3.206,2.562l3.532,-3.523l-2.547,-3.166c1.304,-1.857 2.227,-4.001 2.655,-6.319l4.016,-0.44Z" style="fill:none;fill-rule:nonzero;stroke:#f34d2f;stroke-width:1.5px;"/><path d="M53.16,76.047c0,5.03 -4.083,9.113 -9.113,9.113c-5.029,0 -9.112,-4.083 -9.112,-9.113c0,-5.029 4.083,-9.112 9.112,-9.112c5.03,0 9.113,4.083 9.113,9.112Z" style="fill:none;stroke:#f34d2f;stroke-opacity:0.5;stroke-width:2px;"/><path d="M126.095,78.537l0,-4.979l-4.011,-0.439c-0.422,-2.324 -1.343,-4.472 -2.647,-6.337l2.534,-3.149l-3.532,-3.521l-3.181,2.543c-1.866,-1.268 -4.009,-2.156 -6.324,-2.559l-0.452,-4.096l-4.997,0l-0.458,4.144c-2.228,0.427 -4.292,1.307 -6.094,2.541l-3.223,-2.573l-3.534,3.521l2.579,3.207c-1.28,1.847 -2.183,3.969 -2.604,6.261l-4.151,0.457l0,4.979l4.158,0.459c0.424,2.275 1.322,4.382 2.592,6.216l-2.56,3.187l3.531,3.52l3.199,-2.554c1.806,1.24 3.874,2.123 6.106,2.552l0.459,4.178l4.997,0l0.454,-4.129c2.304,-0.403 4.439,-1.285 6.297,-2.543l3.206,2.562l3.532,-3.523l-2.547,-3.166c1.304,-1.857 2.227,-4.001 2.655,-6.319l4.016,-0.44Z" style="fill:none;fill-rule:nonzero;stroke:#f34d2f;stroke-width:1.5px;"/><path d="M115.16,76.047c0,5.03 -4.083,9.113 -9.113,9.113c-5.029,0 -9.112,-4.083 -9.112,-9.113c0,-5.029 4.083,-9.112 9.112,-9.112c5.03,0 9.113,4.083 9.113,9.112Z" style="fill:none;stroke:#f34d2f;stroke-opacity:0.6;stroke-width:2px;"/><clipPath id="_clip1"><path d="M42.5,104c23.472,0 42.5,-19.028 42.5,-42.5c0,-23.472 -19.028,-42.5 -42.5,-42.5c-23.472,0 -42.5,19.028 -42.5,42.5c0,23.472 19.028,42.5 42.5,42.5Z"/></clipPath><g clip-path="url(#_clip1)"><rect x="-5" y="14" width="95" height="95" style="fill:#f67e6d;fill-opacity:0.18;"/></g></g></svg>