<?xml version="1.0" encoding="UTF-8"?>
<svg width="1571" height="310" viewBox="0 0 1571 310" version="1.1" xmlns="http://www.w3.org/2000/svg" xmlns:xlink="http://www.w3.org/1999/xlink">
	<path d="M0,57.2449392 L56.9930197,0 L310,0 L310,253.830933 L253.906064,310 L0,310 L0,57.2449392 Z M115.721461,166.84475 L115.721461,144.123288 L93,144.123288 L115.721461,166.84475 Z M115.721461,217.400002 L115.721461,194.67854 L93,217.400002 L115.721461,217.400002 Z M141.283106,166.84475 L141.283106,144.123288 L118.561644,144.123288 L118.561644,166.84475 L141.283106,166.84475 Z M166.84475,166.84475 L166.84475,144.123288 L144.123288,144.123288 L144.123288,166.84475 L166.84475,166.84475 Z M141.283106,217.400002 L141.283106,194.67854 L118.561644,194.67854 L118.561644,217.400002 L141.283106,217.400002 Z M166.84475,217.400002 L166.84475,194.67854 L144.123288,194.67854 L144.123288,217.400002 L166.84475,217.400002 Z M195.246577,217.400002 L217.968038,194.67854 L195.246577,194.67854 L195.246577,217.400002 Z M217.968038,166.84475 L195.246577,144.123288 L195.246577,166.84475 L217.968038,166.84475 Z M192.406394,166.84475 L192.406394,144.123288 L169.684932,144.123288 L169.684932,166.84475 L192.406394,166.84475 Z M192.406394,217.400002 L192.406394,194.67854 L169.684932,194.67854 L169.684932,217.400002 L192.406394,217.400002 Z M217.968038,191.838357 L217.968038,169.116896 L195.246577,169.116896 L195.246577,191.838357 L217.968038,191.838357 Z M141.283106,115.721461 L141.283106,93 L118.561644,93 L118.561644,115.721461 L141.283106,115.721461 Z M115.721461,115.721461 L115.721461,93 L93,115.721461 L115.721461,115.721461 Z M166.84475,115.721461 L166.84475,93 L144.123288,93 L144.123288,115.721461 L166.84475,115.721461 Z M192.406394,115.721461 L192.406394,93 L169.684932,93 L169.684932,115.721461 L192.406394,115.721461 Z M195.246577,115.721461 L217.968038,93 L195.246577,93 L195.246577,115.721461 Z M115.721461,141.283106 L115.721461,118.561644 L93,118.561644 L93,141.283106 L115.721461,141.283106 Z" fill="#FFF"></path>
	<g transform="translate(439.000000, 91.000000)" fill="#FFF">
		<polygon points="404.23479 0 428.968446 0 428.968446 108.46256 526.25381 108.46256 506.016189 130 428.968446 130 404.23479 130"></polygon>
		<path d="M95.8209167,77.5806452 L42.1077907,77.5806452 L42.1077907,77.5667521 C41.7580245,77.5759947 41.4071055,77.5806452 41.0550959,77.5806452 C19.5437671,77.5806452 2.10538953,60.2136262 2.10538953,38.7903226 C2.10538953,17.367019 19.5437671,0 41.0550959,0 C41.4071055,0 41.7580245,0.00465050217 42.1077942,0.0138931803 L42.1077907,0 L134.74493,0 L107.374866,25.1612903 L41.0294029,25.1612903 C33.4855583,25.1612903 27.3700639,31.2632159 27.3700639,38.7903226 C27.3700639,46.3174293 33.4855583,52.4193548 41.0294029,52.4193548 L98.953308,52.4193548 L98.953308,52.5450181 C118.987713,54.1459681 134.74493,70.8452051 134.74493,91.2096774 C134.74493,112.632981 117.306553,130 95.7952237,130 C94.7320419,130 93.6788092,129.957577 92.6371394,129.874337 L92.6371394,130 L0,130 L29.4754535,104.83871 L95.8209167,104.83871 C103.364761,104.83871 109.480256,98.7367841 109.480256,91.2096774 C109.480256,83.6825707 103.364761,77.5806452 95.8209167,77.5806452 Z" id="Combined-Shape"></path>
		<path d="M225.27668,0.0223813577 L225.27668,0 L313.70304,0 L313.70304,0.0223813577 C326.237533,0.556400809 336.303638,10.5813156 336.839852,23.0645161 L336.862325,23.0645161 L336.862325,104.83871 L336.839852,104.83871 C336.854783,105.186317 336.862325,105.535829 336.862325,105.887097 C336.862325,118.853018 326.586568,129.428729 313.70304,129.977619 L313.70304,130 L225.27668,130 L225.27668,129.977619 C212.393153,129.428729 202.117395,118.853018 202.117395,105.887097 C202.117395,105.535829 202.124937,105.186317 202.139868,104.83871 L202.117395,104.83871 L202.117395,23.0645161 L202.139868,23.0645161 C202.676082,10.5813156 212.742188,0.556400809 225.27668,0.0223813577 Z M241.856623,23.0785947 C234.022565,23.4145102 227.731249,29.720505 227.396115,37.5728408 L227.38207,37.5728408 L227.38207,89.0114464 L227.396115,89.0114464 C227.386783,89.2301023 227.38207,89.4499573 227.38207,89.6709157 C227.38207,97.8268986 233.804418,104.479362 241.856623,104.824631 L241.856623,104.83871 L297.123098,104.83871 L297.123098,104.824631 C305.175302,104.479362 311.597651,97.8268986 311.597651,89.6709157 C311.597651,89.4499573 311.592937,89.2301023 311.583605,89.0114464 L311.597651,89.0114464 L311.597651,37.5728408 L311.583605,37.5728408 C311.248471,29.720505 304.957155,23.4145102 297.123098,23.0785947 L297.123098,23.0645161 L241.856623,23.0645161 L241.856623,23.0785947 Z" id="Combined-Shape"></path>
		<path d="M618.284954,35.6451613 L618.284954,60.8064516 L702.500535,60.8064516 L702.500535,35.6451613 C702.500535,27.5390464 695.90223,20.9677419 687.762809,20.9677419 L633.022681,20.9677419 C624.883259,20.9677419 618.284954,27.5390464 618.284954,35.6451613 Z M702.500535,130 L702.500535,79.6774194 L618.284954,79.6774194 L618.284954,130 L593.02028,130 L593.02028,25.1612903 L593.042753,25.1612903 C593.027822,24.8136835 593.02028,24.4641705 593.02028,24.1129032 C593.02028,10.7957145 603.860352,0 617.232259,0 C617.58497,0 617.935919,0.00751106793 618.284954,0.0223813577 L618.284954,0 L704.605925,0 L704.605925,0.0223813577 C717.489452,0.571271099 727.76521,11.1469818 727.76521,24.1129032 C727.76521,24.4641705 727.757668,24.8136835 727.742736,25.1612903 L727.76521,25.1612903 L727.76521,130 L702.500535,130 Z" id="Combined-Shape"></path>
		<path d="M1022.51974,35.6451613 L1022.51974,60.8064516 L1106.73533,60.8064516 L1106.73533,35.6451613 C1106.73533,27.5390464 1100.13702,20.9677419 1091.9976,20.9677419 L1037.25747,20.9677419 C1029.11805,20.9677419 1022.51974,27.5390464 1022.51974,35.6451613 Z M1106.73533,130 L1106.73533,79.6774194 L1022.51974,79.6774194 L1022.51974,130 L997.25507,130 L997.25507,25.1612903 L997.277543,25.1612903 C997.262612,24.8136835 997.25507,24.4641705 997.25507,24.1129032 C997.25507,10.7957145 1008.09514,0 1021.46705,0 C1021.81976,0 1022.17071,0.00751106793 1022.51974,0.0223813577 L1022.51974,0 L1108.84072,0 L1108.84072,0.0223813577 C1121.72424,0.571271099 1132,11.1469818 1132,24.1129032 C1132,24.4641705 1131.99246,24.8136835 1131.97753,25.1612903 L1132,25.1612903 L1132,130 L1106.73533,130 Z" id="Combined-Shape-Copy-2"></path>
		<polygon points="904.61793 98.5326814 904.61793 0 929.882605 0 929.882605 130 904.61793 130 904.61793 129.782674 820.402349 33.5483871 820.402349 130 795.137675 130 795.137675 0 820.402349 0"></polygon>
	</g>
</svg>